<?xml version="1.0" encoding="utf-8"?>
<!-- Generator: Adobe Illustrator 27.1.1, SVG Export Plug-In . SVG Version: 6.00 Build 0)  -->
<svg version="1.1" id="Layer_1" xmlns="http://www.w3.org/2000/svg" xmlns:xlink="http://www.w3.org/1999/xlink" x="0px" y="0px"
	 width="720px" height="252px" viewBox="0 0 720 252" style="enable-background:new 0 0 720 252;" xml:space="preserve">
<style type="text/css">
	.st0{fill:#FFFFFF;}
	.st1{fill:#FFC844;}
</style>
<path class="st0" d="M349.5,140h54.4L360.3,8.6h-39.7l-33.1,103.3h-6.3V36.7h13.9V8.6h-68.2v28.1h14.8v28.9c0,6.6,1.3,16.5,1.3,16.5
	h-0.9c0,0-2.7-8.8-6-15.2L205.7,8.6h-54.1v28.1h13.9v75.1h-13.9V140h68.2v-28.1H205V83.5c0-6.8-1.3-16.6-1.3-16.6h0.9
	c0,0,2.7,9,6,15.2l30.7,57.9h36.3h3.5h55.7v-28.1h-10.2l2.6-12.1h28l2.6,12.1h-10.2V140z M335,73.8l4.4-18.1
	c2.4-9.5,3.3-17.5,3.3-17.5h0.9c0,0,1.1,7.9,3.3,17.5l4.2,18.1H335z"/>
<path class="st1" d="M667.1,11.1c-8-2.4-16.8-2.6-26.7-2.6h-58.7v28.1h13.9v75.1h-13.8c1-3.7,1.6-7.7,1.6-12.2
	c0-25-20.5-32.7-40.8-39.7c-10.6-3.7-20.3-7.1-20.3-13.7c0-4.4,4.4-5.8,10.1-5.8c6.9,0,11.9,2.2,11.9,6.2v6.9h34.9V33.1
	c0-17.9-23.2-26.7-46.8-26.7c-24.1,0-49.7,8.4-49.7,39.8c0,23.8,16.3,32.2,34.4,39.3c12.6,4.9,26.7,7.7,26.7,15.4
	c0,4.4-5.1,7.3-13.7,7.3c-8.6,0-15.5-2.9-15.5-8.4v-8.2h-34.3c-2.1-8.5-7.5-16.4-19.6-20.1v-0.4c10.4-5.8,15.4-17.4,15.4-28
	c0-15.9-10.1-27.6-25.4-32.4c-7.7-2.2-13.7-2.2-24.5-2.2h-51.6L417.8,140h21.5c-2.1,0,3.2,0,10.3-1.5c13.3-3,25.8-12,30-26.5
	c2.5,19.7,25.6,30.1,50.4,30.1c21.6,0,45.4-7.7,51.7-30.2v28h59c12.6,0,23-1.1,33.1-4.8c23.4-9.1,38.6-31.6,38.6-61.1
	C712.4,40.9,693.6,18.3,667.1,11.1z M417.2,39.1h10.1c6.8,0,9.5,3.8,9.5,9.1c0,4.9-2.6,9.1-9,9.1h-10.6V39.1z M431.3,109.5h-14.1
	V88.1h14.4c7.5,0,10.2,4.2,10.2,10.1C441.9,104.6,438.6,109.5,431.3,109.5z M658.8,105.6c-5.5,2.9-11.1,3.8-19,3.8h-4.8V39.1h4.8
	c5.8,0,10.4,0.4,15.5,2.7c9.5,4.6,16.3,15.4,16.3,32.5C671.6,88.8,667.1,100.2,658.8,105.6z"/>
<path class="st0" d="M28.8,49.5c9.2,4,13.8,9,13.8,9l-8.8-2.3c0,0,8.3,11.5,13.3,29c5,17.5,3.6,23.4,3.6,23.4s3.9-0.7,8.4-1.2V47.7
	c-8.7,0.3-12.6,1.6-12.6,1.6s4.3-3.5,9.9-11.8c5.6-8.3,10.3-22.9,10.3-22.9c3.5,15.5,19.6,34.5,19.6,34.5S82,48.4,73.7,48v59.3
	c4.5,0.5,8.4,1.2,8.4,1.2s-1.4-5.9,3.6-23.4c5-17.5,13.3-29,13.3-29l-8.8,2.3c0,0,4.6-5,13.8-9c5.5-2.4,12.6-4.3,19.6-5.6V8.6H9.2
	v35.3C16.2,45.2,23.3,47.1,28.8,49.5z"/>
<path class="st1" d="M101.8,76.3c-8.8,23.4-7,45.5-7,45.5s-4.7-2.3-17.8-3.2c-1.2-0.1-2.3-0.2-3.4-0.2v27h-0.1v16.8l49.9-36.5V47.9
	C116.7,53,107.1,62.3,101.8,76.3z"/>
<path class="st1" d="M59.2,145.4H59v-27c-1.1,0.1-2.2,0.1-3.4,0.2c-13,0.9-17.8,3.2-17.8,3.2s1.9-22.1-7-45.5
	C25.6,62.3,16,53,9.2,47.9v78l50,36.3V145.4z"/>
<g>
	<path class="st0" d="M149.6,178.9h3.6l11.6,17c1,1.4,2.2,3.8,2.2,3.8h0.1c0,0-0.3-2.3-0.3-3.8v-17h3.7V205h-3.6L155.2,188
		c-1-1.4-2.2-3.8-2.2-3.8H153c0,0,0.3,2.3,0.3,3.8V205h-3.7V178.9z"/>
	<path class="st0" d="M189.9,197.5H180l-2.6,7.5h-3.8l9.4-26.1h3.8l9.4,26.1h-3.8L189.9,197.5z M185,182.5c0,0-0.6,2.4-1,3.7
		l-2.9,8.3h7.9l-2.9-8.3C185.6,184.8,185,182.5,185,182.5L185,182.5z"/>
	<path class="st0" d="M195.1,178.9h4l6.5,18.5c0.5,1.4,1,3.6,1,3.6h0.1c0,0,0.5-2.2,1-3.6l6.6-18.5h3.9l-9.6,26.1h-3.7L195.1,178.9z
		"/>
	<path class="st0" d="M233,197.5h-9.8l-2.6,7.5h-3.8l9.4-26.1h3.8l9.4,26.1h-3.8L233,197.5z M228.1,182.5c0,0-0.6,2.4-1,3.7
		l-2.9,8.3h7.9l-2.9-8.3C228.7,184.8,228.2,182.5,228.1,182.5L228.1,182.5z"/>
	<path class="st0" d="M242.6,178.9h3.7v22.9H258v3.2h-15.4V178.9z"/>
	<path class="st0" d="M283.4,197.5h-9.8l-2.6,7.5h-3.8l9.4-26.1h3.8l9.4,26.1H286L283.4,197.5z M278.4,182.5c0,0-0.6,2.4-1,3.7
		l-2.9,8.3h7.9l-2.9-8.3C279.1,184.8,278.5,182.5,278.4,182.5L278.4,182.5z"/>
	<path class="st0" d="M304.3,178.4c6.3,0,9.5,3.4,9.5,3.4l-1.8,2.7c0,0-3-2.8-7.6-2.8c-5.8,0-9.7,4.4-9.7,10
		c0,5.6,3.9,10.3,9.7,10.3c4.9,0,8.1-3.4,8.1-3.4l2,2.6c0,0-3.6,4.1-10.1,4.1c-7.8,0-13.4-6-13.4-13.7
		C291.1,184.2,296.8,178.4,304.3,178.4z"/>
	<path class="st0" d="M331.9,197.5H322l-2.6,7.5h-3.8l9.4-26.1h3.8l9.4,26.1h-3.8L331.9,197.5z M326.9,182.5c0,0-0.6,2.4-1,3.7
		l-2.9,8.3h7.9l-2.9-8.3C327.6,184.8,327,182.5,326.9,182.5L326.9,182.5z"/>
	<path class="st0" d="M341.5,178.9h8.7c8,0,13.2,4.8,13.2,13c0,8.3-5.3,13.1-13.2,13.1h-8.7V178.9z M349.9,201.8
		c5.9,0,9.7-3.5,9.7-9.9c0-6.4-3.9-9.8-9.7-9.8h-4.7v19.8H349.9z"/>
	<path class="st0" d="M368.2,178.9h15.2v3.2h-11.5v8.2h9.4v3.2h-9.4v8.4H384v3.2h-15.8V178.9z"/>
	<path class="st0" d="M390.1,178.9h3.8l6,14.1c0.6,1.4,1.3,3.5,1.3,3.5h0.1c0,0,0.7-2.1,1.3-3.5l6-14.1h3.8l2.1,26.1h-3.6l-1.3-16.5
		c-0.1-1.6,0-3.9,0-3.9h-0.1c0,0-0.8,2.4-1.4,3.9l-5.2,11.8h-3.3l-5.2-11.8c-0.6-1.4-1.4-3.9-1.4-3.9h-0.1c0,0,0,2.3-0.1,3.9
		l-1.3,16.5h-3.7L390.1,178.9z"/>
	<path class="st0" d="M425.3,193.9l-8.8-15.1h4.1l4.8,8.6c0.8,1.4,1.6,3.3,1.6,3.3h0.1c0,0,0.8-1.8,1.6-3.3l4.8-8.6h4.1l-8.7,15.1
		V205h-3.7V193.9z"/>
	<path class="st0" d="M149.1,219.1h9.7c5.3,0,9,2.4,9,6.9c0,2.2-1.1,4.5-3.1,5.6v0.1c3,0.9,4.1,3.6,4.1,6c0,5.8-4.8,7.9-10.1,7.9
		h-9.7V219.1z M158.9,229.3c1.6,0,2.3-1.2,2.3-2.4c0-1.2-0.7-2.3-2.4-2.3h-3.2v4.7H158.9z M159.5,240c1.9,0,2.8-1.3,2.8-2.8
		c0-1.5-0.9-2.7-2.8-2.7h-3.9v5.5H159.5z"/>
	<path class="st0" d="M172.1,219.1h6.5v16.7c0,2.8,1.8,4.3,4.6,4.3c2.8,0,4.6-1.5,4.6-4.3v-16.7h6.5v16.7c0,6-4.4,10.2-11,10.2
		c-6.7,0-11.1-4.2-11.1-10.2V219.1z"/>
	<path class="st0" d="M200.8,237.3c0,0,3,2.7,6.3,2.7c1.3,0,2.8-0.5,2.8-2.1c0-3.1-11.9-3-11.9-11.2c0-4.9,4.1-8.1,9.4-8.1
		c5.7,0,8.5,3,8.5,3l-2.7,5.3c0,0-2.7-2.3-5.8-2.3c-1.3,0-2.8,0.6-2.8,2.1c0,3.3,11.9,2.7,11.9,11.1c0,4.4-3.4,8.2-9.3,8.2
		c-6.2,0-9.7-3.8-9.7-3.8L200.8,237.3z"/>
	<path class="st0" d="M220.2,219.1h6.5v26.5h-6.5V219.1z"/>
	<path class="st0" d="M232.2,219.1h6.6l7.3,12.4c1,1.7,2.2,4.5,2.2,4.5h0.1c0,0-0.3-2.8-0.3-4.5v-12.4h6.5v26.5h-6.5l-7.4-12.3
		c-1-1.7-2.2-4.5-2.2-4.5h-0.1c0,0,0.3,2.8,0.3,4.5v12.3h-6.5V219.1z"/>
	<path class="st0" d="M260.1,219.1h16.6v5.6h-10.1v4.8h8.1v5.6h-8.1v5h10.6v5.6h-17.1V219.1z"/>
	<path class="st0" d="M282.7,237.3c0,0,3,2.7,6.3,2.7c1.3,0,2.8-0.5,2.8-2.1c0-3.1-11.9-3-11.9-11.2c0-4.9,4.1-8.1,9.4-8.1
		c5.7,0,8.5,3,8.5,3l-2.7,5.3c0,0-2.7-2.3-5.8-2.3c-1.3,0-2.8,0.6-2.8,2.1c0,3.3,11.9,2.7,11.9,11.1c0,4.4-3.4,8.2-9.3,8.2
		c-6.2,0-9.7-3.8-9.7-3.8L282.7,237.3z"/>
	<path class="st0" d="M303.5,237.3c0,0,3,2.7,6.3,2.7c1.3,0,2.8-0.5,2.8-2.1c0-3.1-11.9-3-11.9-11.2c0-4.9,4.1-8.1,9.4-8.1
		c5.7,0,8.5,3,8.5,3l-2.7,5.3c0,0-2.7-2.3-5.8-2.3c-1.3,0-2.8,0.6-2.8,2.1c0,3.3,11.9,2.7,11.9,11.1c0,4.4-3.4,8.2-9.3,8.2
		c-6.2,0-9.7-3.8-9.7-3.8L303.5,237.3z"/>
	<path class="st0" d="M332.1,237.3c0,0,3,2.7,6.3,2.7c1.3,0,2.8-0.5,2.8-2.1c0-3.1-11.9-3-11.9-11.2c0-4.9,4.1-8.1,9.4-8.1
		c5.7,0,8.5,3,8.5,3l-2.7,5.3c0,0-2.7-2.3-5.8-2.3c-1.3,0-2.8,0.6-2.8,2.1c0,3.3,11.9,2.7,11.9,11.1c0,4.4-3.4,8.2-9.3,8.2
		c-6.2,0-9.7-3.8-9.7-3.8L332.1,237.3z"/>
	<path class="st0" d="M351.5,219.1h16.6v5.6H358v4.8h8.1v5.6H358v5h10.6v5.6h-17.1V219.1z"/>
	<path class="st0" d="M372.6,219.1h9.2c2.7,0,4,0.2,5.1,0.6c3,1.1,4.9,3.8,4.9,7.7c0,2.8-1.3,5.9-4,7.2v0.1c0,0,0.4,0.5,1,1.6
		l5.1,9.3h-7.2l-4.7-8.9h-3v8.9h-6.5V219.1z M381.9,231.1c2.1,0,3.4-1.1,3.4-3.3c0-2-0.7-3.2-4-3.2h-2.2v6.4H381.9z"/>
	<path class="st0" d="M393.6,219.1h7l4.7,15.1c0.5,1.7,1,4.3,1,4.3h0.1c0,0,0.5-2.6,1-4.3l4.7-15.1h6.9l-9.3,26.5H403L393.6,219.1z"
		/>
	<path class="st0" d="M421.3,219.1h6.5v26.5h-6.5V219.1z"/>
	<path class="st0" d="M445.4,218.7c6.6,0,9.9,3.7,9.9,3.7l-3,4.9c0,0-3-2.7-6.6-2.7c-5.1,0-7.5,3.7-7.5,7.5c0,3.9,2.6,8,7.5,8
		c4,0,7-3.3,7-3.3l3.3,4.7c0,0-3.7,4.4-10.7,4.4c-8.3,0-13.9-5.9-13.9-13.7C431.5,224.6,437.4,218.7,445.4,218.7z"/>
	<path class="st0" d="M459.3,219.1h16.6v5.6h-10.1v4.8h8.1v5.6h-8.1v5h10.6v5.6h-17.1V219.1z"/>
	<path class="st0" d="M481.9,237.3c0,0,3,2.7,6.3,2.7c1.3,0,2.8-0.5,2.8-2.1c0-3.1-11.9-3-11.9-11.2c0-4.9,4.1-8.1,9.4-8.1
		c5.7,0,8.5,3,8.5,3l-2.7,5.3c0,0-2.7-2.3-5.8-2.3c-1.3,0-2.8,0.6-2.8,2.1c0,3.3,11.9,2.7,11.9,11.1c0,4.4-3.4,8.2-9.3,8.2
		c-6.2,0-9.7-3.8-9.7-3.8L481.9,237.3z"/>
	<path class="st0" d="M509,219.1h9.4c8.3,0,13.7,4.8,13.7,13.2c0,8.3-5.3,13.3-13.7,13.3H509V219.1z M518.2,240
		c4.5,0,7.2-2.7,7.2-7.7c0-5-2.8-7.6-7.2-7.6h-2.7V240H518.2z"/>
	<path class="st0" d="M536,219.1h6.5v26.5H536V219.1z"/>
	<path class="st0" d="M544.7,219.1h7l4.7,15.1c0.5,1.7,1,4.3,1,4.3h0.1c0,0,0.5-2.6,1-4.3l4.7-15.1h6.9l-9.3,26.5h-6.7L544.7,219.1z
		"/>
	<path class="st0" d="M572.3,219.1h6.5v26.5h-6.5V219.1z"/>
	<path class="st0" d="M585.8,237.3c0,0,3,2.7,6.3,2.7c1.3,0,2.8-0.5,2.8-2.1c0-3.1-11.9-3-11.9-11.2c0-4.9,4.1-8.1,9.4-8.1
		c5.7,0,8.5,3,8.5,3l-2.7,5.3c0,0-2.7-2.3-5.8-2.3c-1.3,0-2.8,0.6-2.8,2.1c0,3.3,11.9,2.7,11.9,11.1c0,4.4-3.4,8.2-9.3,8.2
		c-6.2,0-9.7-3.8-9.7-3.8L585.8,237.3z"/>
	<path class="st0" d="M605.2,219.1h6.5v26.5h-6.5V219.1z"/>
	<path class="st0" d="M629.2,218.7c8,0,13.8,5.9,13.8,13.5c0,7.8-5.8,13.8-13.8,13.8c-8,0-13.8-6.1-13.8-13.8
		C615.4,224.6,621.2,218.7,629.2,218.7z M629.2,240.1c4,0,7.1-3.4,7.1-7.9c0-4.3-3.2-7.6-7.1-7.6c-4,0-7.1,3.3-7.1,7.6
		C622.1,236.7,625.3,240.1,629.2,240.1z"/>
	<path class="st0" d="M646.8,219.1h6.6l7.3,12.4c1,1.7,2.2,4.5,2.2,4.5h0.1c0,0-0.3-2.8-0.3-4.5v-12.4h6.5v26.5h-6.5l-7.4-12.3
		c-1-1.7-2.2-4.5-2.2-4.5H653c0,0,0.3,2.8,0.3,4.5v12.3h-6.5V219.1z"/>
</g>
</svg>
